<svg width="59" height="26" viewBox="0 0 59 26" fill="none" xmlns="http://www.w3.org/2000/svg">
<path d="M29.0527 2.03787C23.9907 4.26025 15.7802 8.8902 15.1629 9.87793C14.2369 11.4212 17.6322 10.1866 25.0401 6.42089C34.6704 1.54401 37.2015 1.05015 42.8191 3.08733C44.918 3.82812 49.3628 5.8653 52.7581 7.53208C56.0917 9.19887 58.9314 10.4953 58.9931 10.3718C59.3635 10.0014 45.6588 2.16134 42.7574 1.05015C38.6213 -0.616635 34.3617 -0.307971 29.0527 2.03787Z" fill="#133E1A"/>
<path d="M54.6712 14.2607C54.1156 19.0759 54.486 25.4961 55.4737 25.8047C56.0293 25.9899 56.2145 24.4466 56.2145 19.3228C56.2145 11.7914 55.3502 8.88997 54.6712 14.2607Z" fill="#133E1A"/>
<path d="M4.35919 14.7544C-4.96245 15.3717 1.33429 16.0508 16.8909 16.0508C28.4349 16.0508 31.5833 15.8656 31.3981 15.2483C31.0895 14.4457 14.113 14.1371 4.35919 14.7544Z" fill="#133E1A"/>
<path d="M2.93983 18.1502C2.13731 20.1256 2.44597 26.0519 3.31023 25.805C4.23622 25.4346 4.60662 21.7307 3.86582 19.0761C3.49543 17.4094 3.2485 17.2242 2.93983 18.1502Z" fill="#133E1A"/>
</svg>
