<svg width="251" height="38" viewBox="0 0 251 38" fill="none" xmlns="http://www.w3.org/2000/svg">
<path d="M213.475 1.23342C213.285 1.6774 213.221 9.73247 213.285 19.1195L213.475 36.2444L216.836 36.4347L220.135 36.625V18.5487V0.40888H216.963C214.934 0.40888 213.665 0.726009 213.475 1.23342Z" fill="black"/>
<path d="M161.022 6.24398C160.831 9.16156 160.641 9.60554 159.436 9.79582C158.168 9.9861 157.977 10.3667 157.977 12.8403C157.977 15.2504 158.168 15.7578 159.563 16.2653C161.149 16.8361 161.149 16.8995 161.149 25.018C161.149 33.8976 161.529 35.1661 164.827 36.4981C165.842 36.9421 168.062 37.1958 169.774 37.0689L172.882 36.8786V34.0245C172.882 31.4874 172.692 31.1703 171.297 30.98C168.379 30.5361 168.125 29.8384 168.125 22.8615V16.2653H170.662H173.199V13.1574V9.9861L170.853 9.79582L168.443 9.60554L168.252 6.24398L168.062 2.94584H164.637H161.212L161.022 6.24398Z" fill="black"/>
<path d="M85.4182 11.5084C82.6275 12.9672 82.5006 13.0306 82.5006 11.8255C82.5006 10.6839 82.0567 10.557 79.0122 10.557H75.5238V23.6227V36.625L78.8854 36.4347L82.1835 36.2444L82.3738 28.8236C82.5641 21.7199 82.6275 21.3394 84.34 19.5C85.2914 18.4852 86.9404 17.407 87.9553 17.2167C88.9701 16.963 90.1752 16.7093 90.6191 16.519C91.0631 16.3922 91.3803 15.1237 91.3803 13.094C91.3803 10.1764 91.2534 9.92274 89.858 9.92274C89.0969 9.92274 87.0673 10.6204 85.4182 11.5084Z" fill="black"/>
<path d="M102.48 10.8743C99.4988 12.016 96.2641 14.997 94.8687 17.9146C93.5368 20.7053 93.6637 26.1599 95.1225 29.2678C97.5326 34.5321 102.86 37.5766 108.759 37.0692C112.565 36.752 117.829 34.3419 119.097 32.3757C119.922 31.1071 119.795 30.9169 117.639 29.5215L115.292 28.0627L112.882 29.4581C109.71 31.2974 105.461 31.2974 103.178 29.5215C102.29 28.8238 101.528 27.809 101.528 27.3016C101.528 26.6039 103.241 26.4136 111.359 26.4136C122.713 26.4136 122.522 26.5405 121.317 20.7687C120.429 16.5826 119.161 14.7433 115.546 12.1428C113.453 10.684 112.121 10.2401 108.949 10.1132C106.539 9.98635 104.002 10.3035 102.48 10.8743ZM112.755 18.3586C113.643 19.2465 114.15 20.2613 113.96 20.6419C113.453 21.403 102.036 21.6567 101.338 20.959C101.148 20.7053 101.211 20.0076 101.592 19.3734C103.368 16.0118 109.837 15.3775 112.755 18.3586Z" fill="black"/>
<path d="M137.554 11.1278C135.651 12.0792 135.144 12.1426 134.89 11.445C134.637 10.8107 133.432 10.557 131.021 10.557H127.533L127.66 23.369L127.85 36.2444L131.212 36.4347L134.51 36.625V29.4579C134.51 21.3394 135.207 17.9778 137.237 16.5825C138.95 15.3774 141.423 15.3774 143.072 16.6459C144.214 17.4704 144.404 18.5487 144.658 26.9209L144.975 36.2444L148.654 36.4347L152.396 36.625L152.142 26.6037C151.952 17.3436 151.825 16.3922 150.43 14.1088C147.893 10.0496 142.248 8.71766 137.554 11.1278Z" fill="black"/>
<path d="M184.553 11.6987C179.986 14.1089 177.957 17.9144 178.02 23.8764C178.083 28.4431 179.098 30.8533 181.889 33.5172C185.758 37.1959 191.593 38.2107 196.033 35.9273C198.253 34.7857 198.57 34.7857 199.077 35.6736C199.458 36.3713 200.409 36.5616 202.756 36.4347L205.864 36.2445L206.054 23.369L206.181 10.557H202.756C200.663 10.557 199.204 10.8742 199.077 11.3181C198.887 11.8255 198.063 11.7621 196.16 11.001C192.164 9.41536 188.485 9.60563 184.553 11.6987ZM197.238 18.4852C198.507 19.7538 198.824 20.7051 198.824 23.5593C198.887 26.8574 198.697 27.3014 196.794 29.0139C190.071 35.0394 180.938 25.7158 186.582 18.5487C189.056 15.3774 194.13 15.314 197.238 18.4852Z" fill="black"/>
<path d="M234.596 14.806L234.405 19.1189L230.156 19.3092L225.843 19.4995V21.9731C225.843 23.3685 225.843 24.7004 225.843 24.9541C225.843 25.2712 227.746 25.5884 230.092 25.7786L234.405 26.0958L234.596 30.4087L234.786 34.7217L238.084 34.5314L241.382 34.3411L241.572 30.0916L241.763 25.8421L246.012 25.6518L250.262 25.4615L250.452 22.4805L250.642 19.4995L246.329 19.3092L242.016 19.1189L241.826 14.806L241.636 10.5565H238.211H234.786L234.596 14.806Z" fill="black"/>
<path d="M30.4916 7.5746C25.2907 9.85793 16.8551 14.6149 16.2208 15.6297C15.2694 17.2153 18.7578 15.9468 26.3689 12.0778C36.2633 7.06719 38.8638 6.55978 44.6356 8.65284C46.792 9.41395 51.3587 11.507 54.8471 13.2195C58.2721 14.932 61.1897 16.2639 61.2531 16.1371C61.6337 15.7565 47.5531 7.70145 44.5721 6.55978C40.3226 4.84729 35.9462 5.16442 30.4916 7.5746Z" fill="#133E1A"/>
<path d="M56.8133 20.1332C56.2424 25.0804 56.623 31.6767 57.6378 31.9938C58.2086 32.1841 58.3989 30.5984 58.3989 25.3341C58.3989 17.5961 57.511 14.6151 56.8133 20.1332Z" fill="#133E1A"/>
<path d="M5.1212 20.6407C-4.45609 21.275 2.01334 21.9727 17.9966 21.9727C29.8573 21.9727 33.092 21.7824 32.9017 21.1481C32.5846 20.3236 15.1425 20.0065 5.1212 20.6407Z" fill="#133E1A"/>
<path d="M3.66243 24.1285C2.8379 26.1581 3.15502 32.247 4.04298 31.9933C4.99437 31.6127 5.37493 27.8072 4.61382 25.0799C4.23326 23.3674 3.97956 23.1771 3.66243 24.1285Z" fill="#133E1A"/>
</svg>
