<svg width="343" height="57" viewBox="0 0 343 57" fill="none" xmlns="http://www.w3.org/2000/svg">
<path d="M264.77 5.44481C264.456 10.2615 264.142 10.9944 262.152 11.3086C260.058 11.6227 259.744 12.2509 259.744 16.3346C259.744 20.3136 260.058 21.1513 262.362 21.989C264.98 22.9313 264.98 23.0361 264.98 36.4389C264.98 51.0983 265.608 53.1925 271.053 55.3914C272.728 56.1244 276.393 56.5432 279.22 56.3338L284.351 56.0197V51.3077C284.351 47.1193 284.037 46.5958 281.733 46.2816C276.917 45.5487 276.498 44.3969 276.498 32.8788V21.989H280.686H284.875V16.8582V11.6227L281 11.3086L277.021 10.9944L276.707 5.44481L276.393 -0.000106812H270.739H265.084L264.77 5.44481Z" fill="#ffffff"/>
<path d="M139.957 14.1365C135.35 16.5448 135.14 16.6495 135.14 14.66C135.14 12.7752 134.407 12.5658 129.381 12.5658H123.622V34.136V55.6016L129.172 55.2874L134.617 54.9733L134.931 42.7223C135.245 30.9948 135.35 30.3665 138.177 27.3299C139.747 25.6546 142.47 23.8745 144.145 23.5604C145.821 23.1415 147.81 22.7227 148.543 22.4085C149.276 22.1991 149.8 20.1049 149.8 16.7542C149.8 11.9376 149.59 11.5187 147.286 11.5187C146.03 11.5187 142.679 12.6705 139.957 14.1365Z" fill="#ffffff"/>
<path d="M168.124 13.0891C163.202 14.9738 157.862 19.8952 155.559 24.7119C153.36 29.3191 153.569 38.3241 155.977 43.4549C159.956 52.1458 168.752 57.1719 178.49 56.3342C184.773 55.8107 193.464 51.8317 195.558 48.5857C196.919 46.4915 196.71 46.1774 193.149 43.8738L189.275 41.4654L185.296 43.7691C180.061 46.8056 173.045 46.8056 169.276 43.8738C167.81 42.722 166.553 41.0466 166.553 40.2089C166.553 39.0571 169.38 38.743 182.783 38.743C201.526 38.743 201.212 38.9524 199.223 29.4238C197.757 22.513 195.662 19.4764 189.694 15.1833C186.239 12.7749 184.04 12.042 178.804 11.8326C174.825 11.6231 170.637 12.1467 168.124 13.0891ZM185.087 25.4448C186.553 26.9108 187.39 28.5861 187.076 29.2144C186.239 30.4709 167.391 30.8897 166.239 29.7379C165.925 29.3191 166.03 28.1673 166.658 27.1202C169.59 21.5706 180.27 20.5235 185.087 25.4448Z" fill="#ffffff"/>
<path d="M226.029 13.5082C222.887 15.0789 222.05 15.1836 221.631 14.0318C221.212 12.9847 219.222 12.5658 215.243 12.5658H209.484L209.694 33.7172L210.008 54.9733L215.558 55.2874L221.002 55.6016V43.7694C221.002 30.3665 222.154 24.8169 225.505 22.5133C228.332 20.5238 232.416 20.5238 235.138 22.618C237.023 23.9792 237.337 25.7593 237.756 39.581L238.28 54.9733L244.353 55.2874L250.531 55.6016L250.112 39.0574C249.798 23.7698 249.588 22.1991 247.285 18.4296C243.096 11.7281 233.777 9.52923 226.029 13.5082Z" fill="#ffffff"/>
<path d="M316.074 19.5811L315.76 26.7013L308.744 27.0155L301.624 27.3296V31.4133C301.624 33.7169 301.624 35.9158 301.624 36.3346C301.624 36.8582 304.765 37.3817 308.64 37.6959L315.76 38.2194L316.074 45.3397L316.388 52.46L321.833 52.1458L327.278 51.8317L327.592 44.8161L327.906 37.8006L334.922 37.4865L341.937 37.1723L342.251 32.251L342.566 27.3296L335.445 27.0155L328.325 26.7013L328.011 19.5811L327.697 12.5655H322.042H316.388L316.074 19.5811Z" fill="#ffffff"/>
<path d="M49.2776 7.64397C40.6914 11.4135 26.765 19.2668 25.7179 20.9421C24.1473 23.5599 29.9063 21.4657 42.4715 15.0784C58.8062 6.80629 63.0993 5.96861 72.6279 9.42403C76.1881 10.6806 83.7272 14.136 89.4862 16.9631C95.1405 19.7903 99.9572 21.9892 100.062 21.7798C100.69 21.1515 77.4446 7.85339 72.5232 5.96861C65.5077 3.14144 58.2827 3.66499 49.2776 7.64397Z" fill="#ffffff"/>
<path d="M92.7324 28.3769C91.79 36.5443 92.4182 47.4341 94.0936 47.9576C95.036 48.2718 95.3501 45.654 95.3501 36.9631C95.3501 24.1885 93.8842 19.2671 92.7324 28.3769Z" fill="#ffffff"/>
<path d="M7.39398 29.2142C-8.41721 30.2613 2.2632 31.4131 28.6501 31.4131C48.2308 31.4131 53.571 31.099 53.2569 30.0519C52.7333 28.6906 23.9381 28.1671 7.39398 29.2142Z" fill="#ffffff"/>
<path d="M4.98539 34.974C3.62416 38.3247 4.14771 48.3768 5.61365 47.958C7.1843 47.3297 7.81256 41.0471 6.55604 36.5446C5.92778 33.7175 5.50894 33.4033 4.98539 34.974Z" fill="#ffffff"/>
</svg>
